Coordinates
version=1
nRows=6
nColumns=63
inDegrees=yes

Units are S.I. units (second, meters, Newtons, ...)
If the header above contains a line with 'inDegrees', this indicates whether rotational values are in degrees (yes) or radians (no).

endheader
time	pelvis_tilt	pelvis_list	pelvis_rotation	pelvis_tx	pelvis_ty	pelvis_tz	hip_flexion_r	hip_adduction_r	hip_rotation_r	knee_angle_r	knee_angle_r_beta	ankle_angle_r	subtalar_angle_r	mtp_angle_r	hip_flexion_l	hip_adduction_l	hip_rotation_l	knee_angle_l	knee_angle_l_beta	ankle_angle_l	subtalar_angle_l	mtp_angle_l	L5_S1_Flex_Ext	L5_S1_Lat_Bending	L5_S1_axial_rotation	L4_L5_Flex_Ext	L4_L5_Lat_Bending	L4_L5_axial_rotation	L3_L4_Flex_Ext	L3_L4_Lat_Bending	L3_L4_axial_rotation	L2_L3_Flex_Ext	L2_L3_Lat_Bending	L2_L3_axial_rotation	L1_L2_Flex_Ext	L1_L2_Lat_Bending	L1_L2_axial_rotation	L1_T12_Flex_Ext	L1_T12_Lat_Bending	L1_T12_axial_rotation	Abs_r3	Abs_r2	Abs_r1	Abs_t1	Abs_t2	neck_flexion	neck_bending	neck_rotation	arm_flex_r	arm_add_r	arm_rot_r	elbow_flex_r	pro_sup_r	wrist_flex_r	wrist_dev_r	arm_flex_l	arm_add_l	arm_rot_l	elbow_flex_l	pro_sup_l	wrist_flex_l	wrist_dev_l
      0.00000000	      2.39153513	     -2.42412373	    105.53603003	      0.19794082	      0.77259486	      0.63531078	     -0.19743160	      1.19850691	    -13.85947190	      2.07341033	      0.03618784	     30.18899244	     -8.70161276	      0.00000000	      2.82438908	     -4.68200709	     18.81488771	      7.65943526	      0.13368236	     31.38531105	     -9.87355664	      0.00000000	      0.25852543	      0.58577064	     -2.39589778	      0.48010758	      0.77907496	     -2.54564139	      0.42473144	      1.42424274	     -2.54564139	      0.29546872	      1.42424274	     -2.09641056	      0.24006672	      1.19450350	     -1.94666694	      0.14772143	      0.90735873	     -1.79692333	      1.84662132	      6.62635468	    -13.32526467	      0.00000000	      0.00000000	     13.08215624	     -1.31637729	      8.61441349	     28.56712819	    -30.66778958	     82.40724987	     83.27234332	     65.07638604	    -10.20209453	     -1.26081470	     24.79714150	    -19.26336282	     71.11290609	     71.37090444	     46.69493832	     20.58504057	     13.30900893
      0.01666667	      2.27611548	     -2.20705211	    105.51948957	      0.19706833	      0.77261861	      0.63581502	     -0.51441976	      1.05251764	    -12.69095236	      2.10606297	      0.03675773	     30.06996194	     -9.18407891	      0.00000000	      2.51371507	     -4.51675147	     19.95654956	      7.49291576	      0.13077605	     31.32066624	    -10.62713660	      0.00000000	      0.22421440	      0.60921848	     -2.79338955	      0.41638856	      0.81026058	     -2.96797640	      0.36836184	      1.48125382	     -2.96797640	      0.25625464	      1.48125382	     -2.44421586	      0.20820549	      1.24231833	     -2.26962901	      0.12811611	      0.94367943	     -2.09504216	      1.60154104	      6.89160131	    -15.53599466	      0.00000000	      0.00000000	     13.98973351	     -1.95361125	     11.58810412	     31.28561576	    -29.14343476	     85.93590147	     83.01891523	     55.40746882	     -8.56711902	     -3.00843207	     22.44789032	    -20.28583924	     66.32862736	     72.08820616	     47.47466815	     22.70281255	     14.38575921
      0.03333333	      2.09733694	     -1.95136565	    105.41171795	      0.19687091	      0.77270071	      0.63582647	     -0.87562828	      0.87981950	    -12.14723608	      2.15314901	      0.03757954	     30.28085162	     -8.93696458	      0.00000000	      2.14229143	     -4.37984780	     20.07574574	      7.47601204	      0.13048102	     31.47725957	    -10.68924232	      0.00000000	      0.19634601	      0.59784585	     -2.92912238	      0.36463417	      0.79513498	     -3.11219253	      0.32257685	      1.45360241	     -3.11219253	      0.22440385	      1.45360241	     -2.56298209	      0.18232690	      1.21912726	     -2.37991194	      0.11219211	      0.92606323	     -2.19684179	      1.40247988	      6.76295186	    -16.29089996	      0.00000000	      0.00000000	     14.52368398	     -2.51302465	     12.05735347	     31.75303097	    -28.48590338	     85.95220334	     83.24769355	     54.23548799	     -8.40686052	     -2.99615965	     21.55501480	    -21.02261451	     64.72012097	     72.80639496	     46.80250217	     23.19320298	     14.05236254
      0.05000000	      2.14041748	     -1.77390286	    105.57129362	      0.19577591	      0.77276215	      0.63591846	     -1.14027331	      0.89700823	    -11.97468545	      2.12078342	      0.03701465	     30.31652442	     -8.87951621	      0.00000000	      1.93319900	     -4.41707139	     20.27443393	      7.48342549	      0.13061041	     31.34740347	    -11.02307522	      0.00000000	      0.19317043	      0.63229899	     -3.19371423	      0.35873680	      0.84095765	     -3.39332137	      0.31735969	      1.53737176	     -3.39332137	      0.22077448	      1.53737176	     -2.79449995	      0.17937806	      1.28938410	     -2.59489282	      0.11037758	      0.97943113	     -2.39528568	      1.37979703	      7.15269261	    -17.76248046	      0.00000000	      0.00000000	     14.38781598	     -2.68456448	     14.29598227	     33.72076884	    -27.81808073	     88.28560365	     83.50483775	     51.84391981	     -8.50841291	     -3.66547727	     19.52991575	    -21.44394929	     61.16907594	     73.84934784	     46.20549263	     23.75441883	     16.50195829
      0.06666667	      2.13794868	     -1.62732487	    105.67825917	      0.19517154	      0.77282130	      0.63613263	     -1.32580470	      0.87158831	    -11.89590727	      2.16824824	      0.03784307	     30.36706223	     -8.81908456	      0.00000000	      1.77053335	     -4.43742887	     20.05618025	      7.57753935	      0.13225301	     31.26257210	    -11.16419340	      0.00000000	      0.19745177	      0.63642399	     -3.21250999	      0.36668769	      0.84644391	     -3.41329186	      0.32439352	      1.54740130	     -3.41329186	      0.22566763	      1.54740130	     -2.81094624	      0.18335372	      1.29779581	     -2.61016437	      0.11282394	      0.98582076	     -2.40938249	      1.41037828	      7.19935549	    -17.86701681	      0.00000000	      0.00000000	     14.09617078	     -2.80048426	     14.20570474	     33.95026971	    -28.03935567	     88.04666973	     84.03721783	     51.97264254	     -8.52768382	     -3.82140226	     19.36952449	    -21.69171301	     60.96828886	     74.45510725	     46.05995725	     23.88850190	     16.44117577
      0.08333333	      2.06693140	     -1.37022357	    105.42990615	      0.19532416	      0.77304434	      0.63516293	     -1.71175574	      0.84079772	    -11.95616091	      2.14651209	      0.03746370	     30.71301864	     -8.19534376	      0.00000000	      1.28375749	     -4.48792386	     19.65998889	      7.54759065	      0.13173031	     31.23474878	    -11.57973460	      0.00000000	      0.19670521	      0.62906550	     -3.19520158	      0.36530124	      0.83665711	     -3.39490168	      0.32316699	      1.52950985	     -3.39490168	      0.22481438	      1.52950985	     -2.79580138	      0.18266046	      1.28279036	     -2.59610128	      0.11239736	      0.97442246	     -2.39640119	      1.40504563	      7.11611472	    -17.77075263	      0.00000000	      0.00000000	     13.49295914	     -3.30551416	     13.63962233	     33.87191005	    -28.13905099	     87.57075378	     84.59421443	     56.77962524	    -10.86291256	     -3.47525527	     18.07234876	    -21.96249463	     59.35833097	     75.81484354	     43.97081748	     22.06949303	     18.90005977
